Coordinates
version=1
nRows=8
nColumns=40
inDegrees=yes

Units are S.I. units (second, meters, Newtons, ...)
Angles are in degrees.

endheader
time	pelvis_tilt	pelvis_list	pelvis_rotation	pelvis_tx	pelvis_ty	pelvis_tz	hip_flexion_r	hip_adduction_r	hip_rotation_r	knee_angle_r	knee_angle_r_beta	ankle_angle_r	subtalar_angle_r	mtp_angle_r	hip_flexion_l	hip_adduction_l	hip_rotation_l	knee_angle_l	knee_angle_l_beta	ankle_angle_l	subtalar_angle_l	mtp_angle_l	lumbar_extension	lumbar_bending	lumbar_rotation	arm_flex_r	arm_add_r	arm_rot_r	elbow_flex_r	pro_sup_r	wrist_flex_r	wrist_dev_r	arm_flex_l	arm_add_l	arm_rot_l	elbow_flex_l	pro_sup_l	wrist_flex_l	wrist_dev_l
     26.15000000	     -3.28174435	     -2.92740850	     -0.83573855	      0.86074444	      0.93275034	      0.42388843	     27.52254515	     -5.80517571	     -5.30037542	     62.54791572	     62.54791572	      2.72355208	    -17.16430846	      2.82751307	     12.77220120	     -2.36388469	     -7.63810959	     20.45866485	     20.45866485	     13.55126375	     -8.26209922	     -1.66599105	     -9.72500444	      5.40386194	      1.78463009	     -2.18641236	    -13.07199102	      1.18044078	     31.91596744	     45.80031169	      0.00000000	      0.00000000	      4.70111238	    -15.02134706	     -8.49335649	     67.12691630	     46.47443064	      0.00000000	      0.00000000
     26.16321429	     -3.31126188	     -2.95395652	     -1.01735511	      0.86048543	      0.93322764	      0.42367556	     28.10739321	     -5.70666753	     -5.46756835	     60.34370213	     60.34370213	      3.11383333	    -17.19248503	      2.78594026	     11.98103927	     -2.34072405	     -7.79178520	     19.85494191	     19.85494191	     13.76699024	     -8.07817812	     -1.62584768	     -9.75742762	      5.37977320	      1.79344883	     -3.55627071	    -13.00106738	      1.32475497	     31.09231332	     45.81705773	      0.00000000	      0.00000000	      5.53573216	    -15.15908216	     -8.78072517	     68.15286414	     46.53385327	      0.00000000	      0.00000000
     26.17642857	     -3.44563128	     -3.02984473	     -1.14466939	      0.86017654	      0.93342836	      0.42349859	     28.67394949	     -5.56040614	     -5.73514823	     57.95074718	     57.95074718	      3.48514442	    -17.11896808	      2.90978338	     11.38671670	     -2.38696776	     -7.92735980	     19.38130944	     19.38130944	     14.00357317	     -7.85134803	     -1.65768181	     -9.63275318	      5.42683572	      1.50580053	     -4.88882971	    -12.88875843	      1.40399321	     30.57599975	     45.82312086	      0.00000000	      0.00000000	      6.24226182	    -15.57298326	     -9.07400047	     68.85864915	     46.57518103	      0.00000000	      0.00000000
     26.18964286	     -3.34565659	     -3.07444560	     -1.38151628	      0.86008818	      0.93395805	      0.42348337	     28.80777018	     -5.33328846	     -5.84471726	     55.25037810	     55.25037810	      3.57890630	    -17.15454705	      2.50675791	     10.41526174	     -2.45970293	     -8.49062464	     18.73497416	     18.73497416	     14.24184176	     -7.08700300	     -1.93561537	     -9.84369826	      5.39038814	      1.63814348	     -6.21220695	    -12.90474248	      1.57220129	     30.01123163	     45.83182948	      0.00000000	      0.00000000	      6.72071461	    -15.53416335	     -9.61081504	     71.02670372	     46.69101158	      0.00000000	      0.00000000
     26.20285714	     -3.41840388	     -3.14402471	     -1.51761027	      0.85983349	      0.93407558	      0.42349789	     29.04926929	     -5.11430844	     -6.08121518	     52.47445153	     52.47445153	      3.87730089	    -16.92651448	      2.73068856	      9.76317051	     -2.50261410	     -8.64749090	     18.26067318	     18.26067318	     14.45616869	     -6.86206242	     -1.96380724	     -9.78897813	      5.42369976	      1.40217584	     -7.42210820	    -12.84771834	      1.64643579	     29.59397124	     45.83547429	      0.00000000	      0.00000000	      7.43829448	    -15.83593961	     -9.92413890	     71.78569252	     46.73647144	      0.00000000	      0.00000000
     26.21607143	     -3.51852050	     -3.19823637	     -1.67251357	      0.85955458	      0.93403142	      0.42366970	     29.23556545	     -4.88720893	     -6.31661342	     49.56760612	     49.56760612	      4.09261202	    -16.54982636	      2.97456859	      9.16040085	     -2.54518562	     -8.82295423	     17.81160957	     17.81160957	     14.68838287	     -6.60720877	     -2.02800192	     -9.69389384	      5.41757145	      1.26778204	     -8.58628687	    -12.77393978	      1.70389901	     29.21475334	     45.83836229	      0.00000000	      0.00000000	      8.16682327	    -16.14282073	    -10.25056428	     72.61777295	     46.78367857	      0.00000000	      0.00000000
     26.22928571	     -3.43480160	     -3.22002490	     -1.87796608	      0.85945443	      0.93414587	      0.42397782	     29.07584179	     -4.65128856	     -6.49990586	     46.44406771	     46.44406771	      4.16778201	    -16.03107881	      2.56912426	      8.30611740	     -2.61587613	     -9.41685500	     17.32045005	     17.32045005	     14.95936097	     -5.78234588	     -2.38634832	     -9.88106644	      5.34497371	      1.31557725	     -9.82545673	    -12.83746443	      1.69220943	     29.35997137	     45.82948227	      0.00000000	      0.00000000	      8.58828658	    -16.04839801	    -10.92732082	     74.69132157	     46.90493738	      0.00000000	      0.00000000
     26.24250000	     -3.59655298	     -3.28391383	     -2.00258513	      0.85909129	      0.93377405	      0.42441863	     29.15926818	     -4.39428694	     -6.82805796	     43.31940383	     43.31940383	      4.39629117	    -15.24508533	      2.76928501	      7.86125295	     -2.68290469	     -9.52380830	     17.01432129	     17.01432129	     15.20728758	     -5.65300089	     -2.46819017	     -9.74195515	      5.35010656	      1.13198861	    -10.72464915	    -12.78394210	      1.71691565	     29.14763151	     45.82998703	      0.00000000	      0.00000000	      9.25394168	    -16.33715122	    -11.19759122	     75.35266837	     46.94525932	      0.00000000	      0.00000000
